<?xml version="1.0" encoding="UTF-8"?>
<svg id="Layer_1" xmlns="http://www.w3.org/2000/svg" version="1.1" viewBox="0 0 792 612">
  <!-- Generator: Adobe Illustrator 30.4.0, SVG Export Plug-In . SVG Version: 2.1.4 Build 226)  -->
  <g>
    <path d="M465.9,344.1h100.3v100.3h-100.3v-100.3Z" fill="#231f20"/>
    <g>
      <path d="M566.2,347.4v100.7l-66.6,38.5v-100.7l66.6-38.5M579.2,324.8l-19.5,11.3-66.6,38.5-6.5,3.8v130.7l19.5-11.3,66.6-38.5,6.5-3.8v-130.7h0Z" fill="#fff"/>
      <polygon points="566.2 448 566.2 347.4 499.6 385.8 499.6 486.5 566.2 448" fill="#231f20"/>
    </g>
  </g>
  <g>
    <path d="M225.9,344.1h100.3v100.3h-100.3v-100.3Z" fill="#231f20"/>
    <g opacity=".5">
      <path d="M326.2,344.1v100.3h-100.3v-100.3h100.3M339.2,331.1h-126.3v126.3h126.3v-126.3h0Z" fill="#fff"/>
      <rect x="225.9" y="344.1" width="100.3" height="100.3" fill="#231f20"/>
    </g>
  </g>
</svg>