<?xml version="1.0" encoding="UTF-8"?>
<svg id="Layer_2" data-name="Layer 2" xmlns="http://www.w3.org/2000/svg" viewBox="0 0 689.02 142.39">
  <defs>
    <style>
      .cls-1 {
        fill: #c66b4f;
      }

      .cls-2 {
        fill: #026d77;
      }

      .cls-3 {
        fill: #82c5be;
      }
    </style>
  </defs>
  <g id="Layer_1-2" data-name="Layer 1">
    <g>
      <path class="cls-1" d="M138.42,23.15h20.42l20.9,53.38,20.9-53.38h20.42l-31.83,77.17h-18.97l-31.83-77.17Z"/>
      <path class="cls-1" d="M235.52,23.15h20.58v77.17h-20.58V23.15Z"/>
      <path class="cls-1" d="M288.01,100.8c-6.33-1.29-11.25-3.05-14.79-5.31v-17.2c4.18,2.57,9.16,4.64,14.95,6.19,5.79,1.55,11.25,2.33,16.4,2.33s8.89-.45,11.25-1.37c2.36-.91,3.54-2.6,3.54-5.06,0-1.93-.62-3.51-1.85-4.74-1.23-1.23-3.22-2.36-5.95-3.38-2.73-1.02-6.94-2.28-12.62-3.78-6.43-1.82-11.5-3.7-15.19-5.63-3.7-1.93-6.49-4.37-8.36-7.32-1.88-2.95-2.81-6.78-2.81-11.5,0-7.72,3.05-13.53,9.16-17.44,6.11-3.91,14.36-5.87,24.76-5.87,5.36,0,10.69.51,16,1.53s9.46,2.44,12.46,4.26v16.56c-3.22-1.93-7.13-3.48-11.74-4.66-4.61-1.18-9.33-1.77-14.15-1.77-5.25,0-9.22.51-11.9,1.53-2.68,1.02-4.02,2.97-4.02,5.87,0,1.93.72,3.46,2.17,4.58,1.45,1.13,3.35,2.09,5.71,2.89,2.36.8,6.65,2.01,12.86,3.62,6.65,1.82,11.84,3.8,15.6,5.95,3.75,2.15,6.43,4.72,8.04,7.72,1.61,3,2.41,6.75,2.41,11.25,0,6.86-2.92,12.35-8.76,16.48-5.84,4.12-14.28,6.19-25.32,6.19-5.58,0-11.52-.64-17.85-1.93Z"/>
      <path class="cls-1" d="M356.4,23.15h20.58v77.17h-20.58V23.15Z"/>
      <path class="cls-1" d="M462.65,95.42c-5.9-4.87-8.84-11.44-8.84-19.69s2.78-15.27,8.36-20.1c5.57-4.82,13.4-7.23,23.47-7.23s18.17,1.98,25.24,5.95v-2.09c0-5.47-.5-11.51-4.44-14.85-3.57-3.03-9.44-3.74-16.94-3.74-4.72,0-9.38.46-13.99,1.37-4.61.91-8.68,2.17-12.22,3.78v-15.92c3.22-1.5,7.53-2.73,12.94-3.7,5.41-.96,10.64-1.45,15.67-1.45,13.4,0,23.16,3.05,29.74,8.6,7.4,6.25,9.65,14.25,9.65,26.87v47.11h-19.13v-7.56c-3.32,3.22-7.1,5.68-11.33,7.4-4.24,1.71-9.41,2.57-15.51,2.57-9.22,0-16.78-2.44-22.67-7.32ZM502.52,85.29c3.64-1.77,6.43-4.21,8.36-7.32v-8.52c-5.89-4.18-12.65-6.27-20.26-6.27-10.83,0-16.24,4.18-16.24,12.54,0,4.07,1.37,7.13,4.1,9.16,2.73,2.04,6.67,3.05,11.82,3.05,4.5,0,8.57-.88,12.22-2.65Z"/>
      <path class="cls-1" d="M548.18,23.15h19.62v12.38c3.11-4.18,7.53-7.29,13.26-9.33,5.73-2.03,12.3-3.05,19.69-3.05v15.43c-7.82,0-14.61,1.21-20.34,3.62-5.73,2.41-9.73,6.19-11.98,11.33v46.79h-20.26V23.15Z"/>
      <path class="cls-1" d="M616.51,91.96c-8.36-7.18-12.54-17.2-12.54-30.07s3.7-22.67,11.09-30.06c7.4-7.4,17.95-11.09,31.67-11.09,9,0,16.69,1.71,23.07,5.14,6.38,3.43,11.17,8.12,14.39,14.07,3.22,5.95,4.82,12.73,4.82,20.34v9.33h-65.76c1.39,11.47,11.36,17.2,29.9,17.2,4.93,0,9.97-.43,15.11-1.29,5.14-.85,9.65-2.03,13.5-3.54v15.59c-3.64,1.5-8.33,2.73-14.07,3.7-5.73.97-11.44,1.45-17.12,1.45-14.36,0-25.72-3.59-34.08-10.77ZM669.89,55.79c-.22-6.11-2.39-10.83-6.51-14.15-4.13-3.32-9.78-4.98-16.96-4.98s-12.65,1.72-16.72,5.15c-4.08,3.43-6.22,8.09-6.43,13.99h46.63Z"/>
      <path class="cls-1" d="M408.44,95.74c-4.4-4.72-6.6-11.37-6.6-19.95v-37.17h-11.59v-15.45h11.59V0h20.27v23.17h22.53v15.45h-22.53v34.59c0,4.94.91,8.45,2.73,10.54,1.82,2.09,5.15,3.14,9.98,3.14,3.33,0,6.6-.75,9.82-2.25v15.45c-4.62,1.82-10.25,2.74-16.9,2.74-8.48,0-14.91-2.36-19.31-7.08Z"/>
    </g>
    <g>
      <polygon class="cls-2" points="100.33 103.94 100.33 3.28 33.73 41.74 33.73 142.39 100.33 103.94"/>
      <polygon class="cls-3" points="20.73 41.74 20.73 34.23 27.23 30.48 80.02 0 0 0 0 100.33 20.73 100.33 20.73 41.74"/>
    </g>
  </g>
</svg>